<?xml version="1.0" encoding="UTF-8" standalone="no"?>
<!-- Uploaded to: SVG Repo, www.svgrepo.com, Generator: SVG Repo Mixer Tools -->

<svg
   width="800px"
   height="800px"
   viewBox="0 0 20 20"
   version="1.1"
   id="svg1"
   sodipodi:docname="tickets_ink.svg"
   inkscape:version="1.4.2 (ebf0e940d0, 2025-05-08)"
   inkscape:export-filename="tickets.png"
   inkscape:export-xdpi="96"
   inkscape:export-ydpi="96"
   xmlns:inkscape="http://www.inkscape.org/namespaces/inkscape"
   xmlns:sodipodi="http://sodipodi.sourceforge.net/DTD/sodipodi-0.dtd"
   xmlns:xlink="http://www.w3.org/1999/xlink"
   xmlns="http://www.w3.org/2000/svg"
   xmlns:svg="http://www.w3.org/2000/svg">
  <defs
     id="defs1">
    <linearGradient
       id="linearGradient1"
       inkscape:collect="always">
      <stop
         style="stop-color:#ffc100;stop-opacity:1;"
         offset="0"
         id="stop1" />
      <stop
         style="stop-color:#cc00e6;stop-opacity:0.91580993;"
         offset="1"
         id="stop2" />
    </linearGradient>
    <linearGradient
       inkscape:collect="always"
       xlink:href="#linearGradient1"
       id="linearGradient2"
       x1="0"
       y1="10.5"
       x2="20"
       y2="10.5"
       gradientUnits="userSpaceOnUse" />
  </defs>
  <sodipodi:namedview
     id="namedview1"
     pagecolor="#ffffff"
     bordercolor="#000000"
     borderopacity="0.25"
     inkscape:showpageshadow="2"
     inkscape:pageopacity="0.0"
     inkscape:pagecheckerboard="0"
     inkscape:deskcolor="#d1d1d1"
     inkscape:zoom="0.7425"
     inkscape:cx="153.53535"
     inkscape:cy="395.9596"
     inkscape:window-width="2560"
     inkscape:window-height="1368"
     inkscape:window-x="1080"
     inkscape:window-y="274"
     inkscape:window-maximized="1"
     inkscape:current-layer="g1" />
  <rect
     x="0"
     fill="none"
     width="20"
     height="20"
     id="rect1" />
  <g
     id="g1">
    <path
       d="M20 6.38L18.99 9.2v-.01c-.52-.19-1.03-.16-1.53.08s-.85.62-1.04 1.14-.16 1.03.07 1.53c.24.5.62.84 1.15 1.03v.01l-1.01 2.82-15.06-5.38.99-2.79c.52.19 1.03.16 1.53-.08.5-.23.84-.61 1.03-1.13s.16-1.03-.08-1.53c-.23-.49-.61-.83-1.13-1.02L4.93 1zm-4.97 5.69l1.37-3.76c.12-.31.1-.65-.04-.95s-.39-.53-.7-.65L8.14 3.98c-.64-.23-1.37.12-1.6.74L5.17 8.48c-.24.65.1 1.37.74 1.6l7.52 2.74c.14.05.28.08.43.08.52 0 1-.33 1.17-.83zM7.97 4.45l7.51 2.73c.19.07.34.21.43.39.08.18.09.38.02.57l-1.37 3.76c-.13.38-.58.59-.96.45L6.09 9.61c-.39-.14-.59-.57-.45-.96l1.37-3.76c.1-.29.39-.49.7-.49.09 0 .17.02.26.05zm6.82 12.14c.35.27.75.41 1.2.41H16v3H0v-2.96c.55 0 1.03-.2 1.41-.59.39-.38.59-.86.59-1.41s-.2-1.02-.59-1.41-.86-.59-1.41-.59V10h1.05l-.28.8 2.87 1.02c-.51.16-.89.62-.89 1.18v4c0 .69.56 1.25 1.25 1.25h8c.69 0 1.25-.56 1.25-1.25v-1.75l.83.3c.12.43.36.78.71 1.04zM3.25 17v-4c0-.41.34-.75.75-.75h.83l7.92 2.83V17c0 .41-.34.75-.75.75H4c-.41 0-.75-.34-.75-.75z"
       id="path1"
       style="fill:url(#linearGradient2)" />
  </g>
</svg>
