<?xml version="1.0" encoding="UTF-8" standalone="no"?>
<!-- Uploaded to: SVG Repo, www.svgrepo.com, Generator: SVG Repo Mixer Tools -->

<svg
   width="641"
   height="403"
   viewBox="0 0 16.025 10.075"
   version="1.1"
   id="svg1"
   xmlns="http://www.w3.org/2000/svg"
   xmlns:svg="http://www.w3.org/2000/svg">
  <defs
     id="defs1" />
  <rect
     x="0"
     fill="none"
     width="20"
     height="20"
     id="rect1"
     y="0" />
  <g
     id="g1">
    <path
       d="m 16.00154,-0.00328725 -0.0025,2.99541285 -0.0033,-0.00939 c -0.55361,-0.00403 -1.023793,0.1958286 -1.413912,0.5900458 -0.390119,0.3942172 -0.591883,0.8698129 -0.595876,1.4234228 -0.004,0.5536099 0.19583,1.0237929 0.58063,1.4172752 0.394217,0.3901189 0.866448,0.5824659 1.429475,0.5830948 l 0.0033,0.00939 -0.0025,2.9954118 -15.99212326,-7.9e-5 -0.00629,-2.9604326 C 0.55215011,7.0448956 1.0223324,6.8450367 1.4124515,6.4508195 1.8059345,6.0660194 1.9982814,5.5937882 2.0022736,5.0401783 2.0062658,4.4865685 1.8064446,4.0163854 1.4122275,3.6262665 1.0307916,3.2422013 0.55856001,3.0498543 0.00495,3.0458619 L 0,0 Z M 13.235393,7.0270352 13.260642,3.0253029 C 13.26936,2.6930022 13.136143,2.3795478 12.90338,2.1441307 12.670615,1.9087136 12.357812,1.7762217 12.025511,1.7675031 L 4.0254107,1.7264305 C 3.3453384,1.7251204 2.7756301,2.30032 2.7676104,2.9615581 l -0.025244,4.0017323 c -0.00735,0.6928529 0.5550548,1.2565087 1.2351271,1.2577998 l 8.0034655,0.050487 c 0.14866,-1.21e-5 0.290592,-0.018858 0.43185,-0.069316 0.489692,-0.1749341 0.830699,-0.6471774 0.822584,-1.175226 z M 4.0234323,2.2262277 12.014116,2.2706668 c 0.202474,0.00205 0.390829,0.083376 0.536138,0.2226113 0.135891,0.1425964 0.21259,0.3275755 0.210589,0.5300493 l -0.02525,4.0017333 c 0.0054,0.4015852 -0.347713,0.7507295 -0.752661,0.7467261 L 3.9888887,7.7179315 C 3.5745222,7.7172915 3.2415224,7.3796357 3.2421622,6.9652699 L 3.2674065,2.9635366 C 3.2640199,2.6567981 3.469834,2.3708965 3.7617657,2.2666086 3.8465199,2.2363302 3.9285856,2.2282566 4.0234323,2.2262307 Z"
       id="path1"
       style="fill:#000000;fill-opacity:0.91581" />
  </g>
</svg>
